<svg width="48" height="48" viewBox="0 0 48 48" fill="none" xmlns="http://www.w3.org/2000/svg">
<g clip-path="url(#clip0_796_258)">
<path d="M36 20H34V16C34 10.48 29.52 6 24 6C18.48 6 14 10.48 14 16V20H12C9.8 20 8 21.8 8 24V44C8 46.2 9.8 48 12 48H36C38.2 48 40 46.2 40 44V24C40 21.8 38.2 20 36 20ZM24 38C21.8 38 20 36.2 20 34C20 31.8 21.8 30 24 30C26.2 30 28 31.8 28 34C28 36.2 26.2 38 24 38ZM30.2 20H17.8V16C17.8 12.58 20.58 9.8 24 9.8C27.42 9.8 30.2 12.58 30.2 16V20Z" fill="#888888"/>
</g>
<defs>
<clipPath id="clip0_796_258">
<rect width="48" height="48" fill="white"/>
</clipPath>
</defs>
</svg>
