<svg width="246" height="80" viewBox="0 0 246 80" fill="none" xmlns="http://www.w3.org/2000/svg">
<path d="M167.69 79.2505C164.168 79.2505 160.887 79.2505 157.628 79.2505C157.353 78.0164 157.262 27.8999 157.533 25.6338C160.72 25.4016 163.94 25.5693 167.333 25.522C167.333 27.0958 167.333 28.5105 167.333 30.1316C171.9 23.7289 180.912 22.2067 187.195 26.9711C192.901 31.2238 194.728 38.723 194.479 45.5428C194.445 52.2852 192.153 59.3458 186.335 63.233C180.573 66.9826 171.93 65.899 167.832 60.0768C167.453 66.6429 167.806 72.6758 167.69 79.2505ZM184.254 45.1343C183.643 25.6424 162.814 31.6495 168.391 50.5996C169.642 54.7706 173.413 56.9894 177.67 56.0305C182.86 55.063 183.832 49.3741 184.254 45.1343Z" fill="white"/>
<path d="M114.894 52.3196C112.421 63.6974 98.8978 68.2253 89.0121 63.7361C78.8125 58.8728 77.1054 45.0182 80.4379 35.3088C83.5769 24.8899 96.4855 21.7552 105.709 25.9047C113.823 29.5726 116.227 39.4669 115.212 47.6111C106.642 47.6971 98.3818 47.6197 89.8162 47.6455C90.0183 51.7348 91.9447 56.3659 96.593 56.2971C99.9513 56.697 102.953 55.4113 104.514 52.3153C107.911 52.3196 111.299 52.3196 114.894 52.3196ZM104.471 40.6322C104.763 30.2305 89.5926 30.7809 89.9581 40.6322C94.7956 40.6322 99.6331 40.6322 104.471 40.6322Z" fill="white"/>
<path d="M118.639 52.311C122.187 52.311 125.532 52.311 128.968 52.311C130.314 56.8991 135.285 57.6688 139.408 56.8862C144.809 55.9359 143.635 50.7716 138.75 50.1223C134.171 48.7549 129.308 48.1056 125.051 45.8352C119.026 43.0746 118.209 34.7885 121.989 29.7747C129.854 19.9707 152.252 22.7872 152.506 37.3642C149.014 37.4545 145.734 37.3857 142.414 37.4115C141.666 32.5697 136.536 31.6194 132.511 32.7933C128.405 33.9715 130.395 38.121 133.771 38.5768C138.742 40.0861 144.026 40.7354 148.662 43.1993C154.639 46.0631 154.871 54.4051 151.53 59.3888C148.4 64.007 142.294 65.2024 137.048 65.3658C128.736 66.0839 118.45 62.0677 118.639 52.311Z" fill="white"/>
<path d="M75.0546 64.0542C71.5845 64.1316 68.2477 64.1144 64.7647 64.0757C64.3046 55.9616 64.7217 47.8862 64.5583 39.7635C64.7174 36.5686 63.1694 33.2103 59.523 33.3393C54.9822 32.8835 51.0262 36.3321 51.2885 40.8858C51.1853 48.6301 51.2713 56.2497 51.2584 64.0155C47.7324 64.1832 44.3483 64.0757 40.8352 64.0843C40.4525 51.2789 40.603 38.4047 40.775 25.5821C44.0903 25.4531 47.3755 25.5262 50.7123 25.5434C51.2283 26.8979 50.794 28.261 51.0262 29.5897C54.9779 25.1005 60.8302 23.7675 66.5492 24.9371C71.7651 25.6724 75.1148 30.712 75.132 35.7688C75.0976 45.203 75.3857 54.6286 75.0546 64.0542Z" fill="white"/>
<path d="M34.94 64.0068C31.5774 64.0068 28.2922 64.0068 24.878 64.0068C24.878 62.6437 24.878 61.3709 24.878 59.8014C20.6855 64.639 14.3688 66.1267 8.37891 64.4669C2.09661 62.8372 0.411012 56.6581 0.583012 50.9004C0.548612 42.5455 0.570112 34.1691 0.570112 25.8185C1.78271 25.4616 8.75301 25.367 11.075 25.6594C12.1629 31.7138 8.92931 52.9516 13.4443 55.4025C18.2388 58.0728 25.0328 54.2931 24.4781 48.1871C24.5641 40.6535 24.3749 33.1586 24.5684 25.6207C28.0858 25.6207 31.4699 25.6207 34.8368 25.6207C35.1464 26.7774 35.2453 61.7321 34.94 64.0068Z" fill="white"/>
<path d="M230.058 13.8857C227.968 17.4504 225.891 20.985 223.784 24.5798C221.681 20.9936 219.609 17.459 217.515 13.8857C221.703 13.8857 225.848 13.8857 230.058 13.8857Z" fill="white"/>
<path d="M202.146 13.8774C206.351 13.8774 210.496 13.8774 214.702 13.8774C212.612 17.4421 210.539 20.9767 208.428 24.5801C206.325 20.9982 204.253 17.4636 202.146 13.8774Z" fill="white"/>
<path d="M232.861 13.8687C237.08 13.8687 241.221 13.8687 245.426 13.8687C243.328 17.442 241.251 20.9852 239.144 24.5757C237.037 20.9895 234.964 17.4549 232.861 13.8687Z" fill="white"/>
<path d="M209.826 0.79248C214.044 0.79248 218.181 0.79248 222.386 0.79248C220.292 4.36578 218.215 7.90038 216.108 11.4909C214.001 7.90898 211.929 4.37868 209.826 0.79248Z" fill="white"/>
<path d="M223.78 1.58789C225.878 5.16549 227.946 8.68719 230.04 12.2519C225.856 12.2519 221.724 12.2519 217.527 12.2519C219.613 8.70009 221.681 5.16549 223.78 1.58789Z" fill="white"/>
<path d="M214.685 12.2606C210.488 12.2606 206.356 12.2606 202.163 12.2606C204.249 8.70449 206.321 5.17849 208.424 1.59229C210.527 5.16559 212.591 8.69159 214.685 12.2606Z" fill="white"/>
<path d="M216.108 14.6772C218.206 18.2548 220.27 21.7722 222.36 25.3326C218.176 25.3326 214.048 25.3326 209.852 25.3326C211.933 21.7851 214.001 18.2591 216.108 14.6772Z" fill="white"/>
<path d="M237.728 25.3498C233.519 25.3498 229.391 25.3498 225.198 25.3498C227.288 21.7894 229.352 18.2677 231.459 14.6772C233.562 18.2505 235.626 21.7722 237.728 25.3498Z" fill="white"/>
<path d="M217.531 38.4174C219.617 34.8613 221.681 31.3439 223.783 27.7534C225.882 31.3267 227.946 34.8484 230.04 38.4174C225.852 38.4174 221.724 38.4174 217.531 38.4174Z" fill="white"/>
<path d="M225.202 26.9922C229.395 26.9922 233.518 26.9922 237.724 26.9922C235.63 30.5612 233.566 34.0829 231.459 37.6691C229.365 34.0915 227.301 30.5655 225.202 26.9922Z" fill="white"/>
<path d="M222.361 27.001C220.267 30.57 218.203 34.0874 216.108 37.665C214.01 34.0874 211.942 30.5657 209.848 27.001C214.032 27.001 218.16 27.001 222.361 27.001Z" fill="white"/>
<path d="M206.988 25.341C202.808 25.341 198.693 25.341 194.505 25.341C196.595 21.7849 198.654 18.2718 200.744 14.7114C202.834 18.2718 204.894 21.7806 206.988 25.341Z" fill="white"/>
</svg>
